Format                                   : AVI
Format/Info                              : Audio Video Interleave
File size                                : 200 MiB
Duration                                 : 1h 18mn
Overall bit rate                         : 358 Kbps
Writing library                          : VirtualDub build 11759/release

Video
ID                                       : 0
Format                                   : MPEG-4 Visual
Codec ID                                 : DIV3
Codec ID/Hint                            : DivX 3 Low
Duration                                 : 1h 18mn
Bit rate                                 : 300 Kbps
Width                                    : 352 pixels
Height                                   : 288 pixels
Display aspect ratio                     : 1.222
Frame rate                               : 25.000 fps
Standard                                 : PAL
Color space                              : YUV
Chroma subsampling                       : 4:2:0
Bit depth                                : 8 bits
Compression mode                         : Lossy
Bits/(Pixel*Frame)                       : 0.118
Stream size                              : 168 MiB (84%)

Audio
ID                                       : 1
Format                                   : MPEG Audio
Format version                           : Version 2
Format profile                           : Layer 3
Mode                                     : Joint stereo
Mode extension                           : Intensity Stereo + MS Stereo
Codec ID                                 : 55
Codec ID/Hint                            : MP3
Duration                                 : 1h 18mn
Bit rate mode                            : Constant
Bit rate                                 : 48.0 Kbps
Channel(s)                               : 2 channels
Sampling rate                            : 22.05 KHz
Compression mode                         : Lossy
Stream size                              : 26.8 MiB (13%)
Alignment                                : Split accross interleaves
Interleave, duration                     : 40 ms (1.00 video frame)
Interleave, preload duration             : 476 ms

Storyline

A young couple seeks therapy from a professional sex therapist whom explains the ways of the so-called female G-spot and the ways to turn a woman on.



Please note this is only of vhs quality don't expect it to be good



RUNTIME 1 HOUR 18 Minutes 22 Seconds Uncut